<svg xmlns="http://www.w3.org/2000/svg" width="993.777" height="259.503" viewBox="0 0 262.937 68.66" fill="#fff">
    <path d="M224.506 68.502c-.255-.146-.463-.55-.463-.896 0-.69.217-.793 2.25-1.06.727-.097 2.07-.36 2.985-.587 1.557-.385 1.629-.435 1.125-.789-.681-.476-.694-1.304-.027-1.66.281-.151 2.097-.275 4.035-.275 1.937 0 4.498-.172 5.69-.381 3.756-.662 8.284-3.219 8.284-4.679 0-1.748-3.576-5.01-7.673-7.002-.946-.46-3.208-1.554-5.027-2.432-2.107-1.018-3.712-1.99-4.422-2.68l-1.114-1.082h-7.686l-.412.992c-1.049 2.53-6.379 11.802-7.196 12.52-1.88 1.65-3.72.49-5.661-3.572-1.229-2.57-1.555-4.157-1.555-7.566v-2.58l-8.533.136c-4.693.075-8.581.18-8.64.233-.06.053.215.396.61.761 1.514 1.404 2.997 5.89 2.649 8.014-.393 2.393-.746 3.438-1.59 4.71-1.81 2.727-3.655 4.015-9.052 6.32-1.703.728-2.323.731-2.598.014-.403-1.048.307-1.904 1.754-2.118.555-.082 2.192-.941 4.366-2.293 2.87-1.784 3.456-2.298 4.102-3.592 1.58-3.164.841-5.133-3.526-9.399l-2.911-2.844-5.447-.003c-6.435-.004-16.783-.235-17.817-.398-.4-.063-.727-.075-.727-.026 0 .195 6.18 4.035 8.682 5.394 2.29 1.244 3.754 2.672 3.75 3.657-.005.815-.56 2.598-1.188 3.812-.504.975-1.743 1.987-3.545 2.895-1.498.756-7.385 2.587-8.36 2.602a4.35 4.35 0 00-1.06.178c-.653.21-1.594-.432-1.394-.952.08-.21 1.081-.831 2.225-1.382l4.594-2.213c2.9-1.398 6.085-3.373 6.085-3.775 0-.486-2.066-2.537-3.637-3.612-.837-.572-2.237-1.312-3.11-1.644-2.907-1.105-5.751-2.534-7.914-3.974l-2.14-1.426-2.778-.211c-1.528-.116-3.474-.219-4.324-.228l-1.546-.017.176 3.77c.247 5.319.58 7.809 1.205 9.006.66 1.266.395 1.723-.995 1.723-2.45 0-3.115-1.597-3.115-7.487 0-2.329.096-4.9.213-5.716l.212-1.483-2.594-.342c-1.607-.213-6.774-.386-13.59-.457l-10.997-.113-.432 1.012c-.79 1.85-.79 2.495 0 3.86.997 1.72 3.063 3.766 4.515 4.469 1.49.72 4.765.966 6.591.493 1.501-.388 5.38-.587 5.845-.3.988.611-2.522 1.894-6.66 2.436-2.109.275-2.966.275-4.62-.002-5.626-.946-7.75-3.014-8.273-8.053-.138-1.33-.18-2.746-.092-3.146l.158-.728h-9.56l1.318 2.467c2.022 3.783 2.679 6.721 1.718 7.682-.218.218-.397.52-.397.671 0 .5-1.013.865-1.57.567-.932-.499-4.587-5.658-5.725-8.08-1.793-3.815-.835-3.501-11.39-3.723l-9.026-.189-.19 1.766c-.212 1.986-.08 3.117.7 5.983.647 2.38 1.253 3.627 2.393 4.926 1.12 1.275 2.074 1.662 3.467 1.408.61-.112 1.164-.096 1.246.037.085.137.78.105 1.653-.078 1.203-.253 1.573-.248 1.838.022.514.522-.561 1.241-3.013 2.016-3.564 1.126-6.69.785-8.094-.882-.838-.995-1.633-3.709-1.823-6.224-.09-1.183-.211-2.204-.27-2.268-.06-.064-.68.484-1.38 1.217-1.749 1.834-4.277 3.494-6.498 4.266-2.617.91-6.046.9-8.136-.025-3.863-1.708-6.262-6.61-5.445-11.123.128-.706.195-1.315.15-1.353-.046-.038-2.002-.137-4.346-.22l-4.263-.151-.325 1.107c-.179.609-.77 2.12-1.316 3.356-.545 1.237-1.206 3.296-1.468 4.574-.262 1.279-.698 2.607-.97 2.952-.27.345-.493.868-.493 1.162 0 .723-.691 1.367-1.468 1.367-.69 0-1.24-.666-1.745-2.113-.172-.494-.78-1.56-1.353-2.37-1.232-1.742-2.017-3.41-3.36-7.132l-.994-2.752-6.024.056c-6.763.063-9.884.325-10.222.858-.124.195-.227.57-.23.834-.002.263-.352 1.87-.778 3.572-.483 1.932-.81 4.013-.87 5.542-.11 2.77-.457 3.434-1.636 3.138-.844-.212-1.093-1.07-.71-2.447.155-.563.284-1.73.285-2.596 0-.865.193-2.984.428-4.71.235-1.725.362-3.203.282-3.283-.08-.08-1.195 0-2.478.18-1.282.179-3.582.431-5.11.56-5.07.43-4.572.498-4.85-.663-.305-1.278-.203-1.347 2.574-1.75 1.18-.172 3.156-.477 4.393-.678a697.8 697.8 0 014.126-.658l1.877-.291.321-3.092c.177-1.7.429-3.926.56-4.944a97.77 97.77 0 00.392-3.704c.083-1.019.262-3.043.396-4.498s.32-5.325.411-8.6c.092-3.273.203-6.251.245-6.617.043-.366-.034-1.377-.17-2.249-.231-1.472-.207-1.617.338-2.058.323-.262.746-.414.94-.34.224.086.367-.08.39-.451.046-.71.121-1.529.183-1.976.025-.182.394-.331.82-.331.87 0 .8-.145 1.606 3.307.558 2.393.748 2.9 2.178 5.821 2.775 5.666 5.84 13.127 7.825 19.05.585 1.746 1.878 4.872 2.872 6.945l1.808 3.77h4.036c3.052 0 4.035-.08 4.036-.33 0-.182.122-1.622.272-3.2.614-6.477 2.163-13.45 4.725-21.267.67-2.047 1.064-3.797 1.148-5.1.077-1.202.342-2.454.673-3.175.301-.655.624-1.459.718-1.786.198-.685 1.332-1.071 1.963-.669.26.167.422.641.422 1.24 0 .532.153 1.063.34 1.18.187.115.412.654.5 1.196.156.962.14.985-.604.905-.691-.074-.834.059-1.484 1.373-.583 1.182-.747 1.953-.869 4.101-.133 2.342-.452 5.31-.78 7.276-.061.364-.302 1.912-.534 3.44a243.69 243.69 0 01-.8 4.895 115.58 115.58 0 00-.64 4.1 49.059 49.059 0 01-.686 3.802c-.232 1-.386 1.848-.343 1.885.044.037 2.064.125 4.49.196l4.409.128.598-.809c.33-.445.98-1.589 1.444-2.542 1.008-2.063 1.643-2.69 2.942-2.9.774-.126.978-.282 1.015-.774.062-.853 2.103-2.598 3.634-3.107 1.412-.47 5.021-.542 6.124-.123.387.147 1.37.694 2.185 1.215l1.482.948-.22-1.274c-.12-.7-.224-1.81-.23-2.465-.012-1.135.025-1.194.781-1.256.437-.035 1.032.119 1.323.342.496.381.538.803.662 6.68l.132 6.272 1.984.133c1.092.073 2.759.118 3.705.1.945-.018 3.72-.048 6.165-.066l4.445-.034-.644-.86c-1.499-2.002-1.892-3.822-1.125-5.207.205-.37.3-1.052.226-1.611-.108-.808.006-1.124.693-1.906 1.418-1.615 5.83-3.292 10.255-3.897 2.526-.346 8.953-.438 10.915-.157 1.652.237 3.283.855 3.088 1.17-.074.12-2.549.291-5.5.381-7.16.219-11.445.9-14.834 2.355-1.838.79-1.39.824.802.062 3.952-1.375 13.06-2.112 17.845-1.445 2.832.395 3.56.666 3.141 1.17-.201.243-1.829.39-5.772.522-6.111.204-11.021.845-14.23 1.859-2.754.87-3.24 1.217-2.86 2.045.158.343 1.315 1.715 2.572 3.048l2.285 2.423 6.546-.123 6.546-.124.996-1.156c1.374-1.594 3.606-3.221 7.98-5.815 4.38-2.597 6.132-3.24 8.881-3.256 2.448-.015 3.007.238 2.852 1.29-.066.45.034.898.238 1.067.47.39.448 1.67-.033 2.07-.444.368-.632.277-2.29-1.108l-1.218-1.018-2.089.57c-1.148.314-3.207 1.092-4.575 1.73-2.105.981-2.808 1.484-4.564 3.267-1.143 1.16-2.077 2.212-2.077 2.34 0 .127 2.47.369 5.49.537 3.02.168 6.502.367 7.74.442 1.236.075 4.451.21 7.144.298l4.896.161.064-3.298c.101-5.228.587-6.924 2.256-7.872.622-.352.736-.34 1.257.13.69.625.63 1.342-.553 6.673-.427 1.927-.777 3.683-.777 3.902 0 .334.537.4 3.314.4h3.314l-.427-.825c-.234-.454-.492-1.695-.572-2.759-.133-1.756-.082-2.043.553-3.128 1.653-2.82 5.502-4.791 11.775-6.029 3.108-.613 4.124-.553 5.575.333.84.512.872.577.41.836-.277.155-1.163.314-1.97.355-2.144.108-4.3.743-7.01 2.064-5.078 2.477-7.978 6.478-6.223 8.586l.52.624 12.857-.009c7.071-.005 12.908-.06 12.97-.122.062-.062-.125-.636-.415-1.276-1.377-3.035.167-5.953 4.133-7.812 3.742-1.753 7.86-2.318 12.28-1.684 2.624.376 3.257.734 2.92 1.647-.203.547-.389.579-3.76.64-5.146.096-8.82.994-11.538 2.821-1.701 1.144-1.981 2.108-1.065 3.672 1.347 2.297.26 2.119 13.806 2.27l12.037.136.315-.766c.174-.42.355-1.837.404-3.147.117-3.124.283-4.016.78-4.207.757-.29 1.442-.163 1.634.305.106.259.469.463.823.463 1.281 0 1.295.722.064 3.235-.766 1.562-1.112 2.587-1.051 3.118l.09.79 4.63.071 4.63.071.896-2.055c.493-1.13 1.178-2.695 1.522-3.476.343-.782.625-1.643.625-1.913 0-.596 1.209-.973 1.826-.57.522.34.453 1.062-.248 2.602-.298.652-.476 1.292-.396 1.42.08.13-.033.989-.25 1.91-.218.922-.397 1.765-.4 1.874-.001.11.986.199 2.196.199h2.199l.336-1.314c.545-2.127 1.629-3.364 3.817-4.36 1.045-.476 2.197-.952 2.561-1.059.364-.107 1.971-.824 3.572-1.593 3.366-1.619 5.54-2.138 10.716-2.56 1.964-.16 4.178-.345 4.92-.413 1.155-.105 1.458-.028 2.111.533.672.578.732.745.5 1.403-.486 1.383-3.033 2.603-3.033 1.453 0-.346-.184-.498-.596-.491-.327.005-1.25-.079-2.05-.187-1.196-.162-2.225-.024-5.767.768-6.93 1.551-7.492 1.77-9.407 3.667-1.163 1.152-1.752 1.975-1.984 2.77-.18.62-.268 1.228-.193 1.35.075.12.944.24 1.93.263.987.024 3.58.215 5.764.425 5.462.526 16.889 1.447 18.63 1.503 1.457.046 2.404.59 2.404 1.381 0 .819-1.34 1.262-2.58.854-.445-.146-.595-.092-.595.213 0 .225-.283.594-.628.82-.52.34-.83.36-1.786.117-1.059-.27-20.058-.843-20.318-.614-.06.054-.06.139 0 .19 2.266 1.874 3.73 2.839 6.149 4.05 3.56 1.785 4.97 2.711 6.476 4.254 1.31 1.342 1.64 2.06 1.64 3.554 0 2.958-2.58 4.958-8.731 6.766-6.354 1.867-7.607 2.214-9.922 2.746-6.217 1.429-7.503 1.629-8.136 1.267zm-9.063-15.056c1.332-2.651 3.681-8.182 3.536-8.327-.055-.056-1.763-.13-3.795-.166-3.492-.061-3.693-.037-3.686.444.044 2.862.452 8.669.668 9.504.15.582.465 1.206.7 1.387.63.487 1.244-.19 2.577-2.842zM60.928 51.883c-2.33-1.346-3.938-4.055-4.436-7.471-.175-1.201-.388-1.933-.508-1.743-.348.546-.24 3.456.18 4.87.609 2.05 2.724 4.22 4.764 4.888 1.233.403 1.233.168 0-.544zm6.504-1.992c1.224-.81 3.573-3.881 4.712-6.16.452-.906.822-1.7.822-1.763 0-.176-3.753-.4-9.723-.582-6.106-.185-5.599-.414-5.092 2.3.333 1.788 1.586 4.38 2.573 5.326 1.996 1.912 4.626 2.257 6.708.88zm-27.157-1.398c.92-1.936 1.44-4.293 1.462-6.623l.008-.86H38.57c-1.746 0-3.175.051-3.175.113 0 .062.455 1.054 1.011 2.204.557 1.15 1.417 3.243 1.911 4.65.495 1.407.92 2.559.944 2.559.024 0 .48-.92 1.014-2.043zm33.193-1.105c1.238-1.577 1.61-2.503 1.434-3.582l-.159-.978-1.29 2.444c-.71 1.344-1.706 2.95-2.212 3.568-.507.618-.92 1.2-.92 1.295 0 .307 2.378-1.769 3.147-2.747zm30.212 1.228c-.548-1.592-1.964-4.484-2.72-5.555-.362-.513-.743-.728-1.294-.728h-.782l.57 1.118c.897 1.757 4.287 6.555 4.632 6.555.04 0-.143-.625-.406-1.39zm106-1.19c-.06-.4-.11-.072-.11.728 0 .8.05 1.128.11.728.061-.4.061-1.055 0-1.455zm24.682-1.77c0-.064-.12-.19-.265-.28-.145-.09-.264-.037-.264.117s.119.28.264.28c.146 0 .265-.052.265-.117zm10.848-1.907c-1.738-.243-10.174-.855-10.283-.746-.289.289.314.441 2.52.637 2.261.2 9.103.297 7.763.11zm-12.436-.622c0-.145-.446-.263-.992-.26-.738.003-.89.07-.595.26.521.337 1.587.337 1.587 0zm-26.987-.264c1.28-.104-2.255-.187-8.202-.193-5.748-.005-10.094.084-9.657.198.967.254 14.735.25 17.859-.005zm8.07 0c-.09-.146-.663-.25-1.273-.23l-1.109.035.926.195c1.384.29 1.636.29 1.456 0zm5.953.066c0-.11-.744-.166-1.653-.125-2.987.133-3.283.238-.795.28 1.346.024 2.448-.046 2.448-.155zm9.26-.05c0-.138-1.235-.253-2.778-.26-1.646-.006-2.778.095-2.778.249 0 .153 1.14.26 2.778.26 1.551 0 2.778-.11 2.778-.249zm-47.005-.296c-.192-.192-1.1-.204-2.897-.037l-2.618.243 2.898.037c2.036.026 2.814-.046 2.617-.243zm50.272-3.03c.09-.656.358-1.49.595-1.852.527-.804.306-.837-.716-.11-.76.542-1.313 1.387-1.675 2.56-.166.537-.095.595.724.595.876 0 .914-.042 1.072-1.193zM74.13 38.58c.223-.635.11-.874-1.052-2.207-2.08-2.386-2.095-2.416-1.433-2.771.478-.256.739-.194 1.607.381 1.155.764 1.277.65.525-.49-1.05-1.593-4.753-3.348-6.167-2.922-2.344.707-9.46 6.736-9.46 8.015 0 .693.158.706 8.856.706h6.873zm-42.968.096c0-.633-1.487-4.449-2.544-6.528-.666-1.31-1.567-3.274-2.002-4.366-.436-1.091-.884-2.103-.997-2.249-.113-.145-.28-.579-.372-.963-.091-.384-1.226-2.892-2.521-5.573-1.296-2.682-2.6-5.463-2.897-6.181-.646-1.554-1.891-6.144-1.908-7.03-.007-.344-.156-.961-.33-1.371-.27-.63-.324-.136-.348 3.175-.056 7.678-.32 14.796-.614 16.62-.167 1.031-.267 3.906-.225 6.483.04 2.546-.021 5.371-.137 6.277l-.211 1.646 3.121-.08c2.693-.068 8.36.08 11.125.293.473.036.86-.033.86-.153zm13.23-.183c0-.076.346-2.07.771-4.432.425-2.362.827-4.651.894-5.088.068-.437.435-2.571.816-4.744.726-4.136.833-5.213.414-4.168a8.416 8.416 0 00-.364 1.19 41.117 41.117 0 01-.53 2.033c-.779 2.748-1.43 6.223-1.836 9.79-.584 5.135-.612 5.556-.377 5.556.116 0 .211-.062.211-.137zm49.317-3.086c-.297-.573-.5-.748-.582-.503-.069.206.099.792.374 1.302.335.622.527.788.582.503.045-.233-.123-.82-.374-1.302z" />
</svg>