<?xml version="1.0" standalone="no"?>
<!DOCTYPE svg PUBLIC "-//W3C//DTD SVG 20010904//EN"
 "http://www.w3.org/TR/2001/REC-SVG-20010904/DTD/svg10.dtd">
<svg version="1.0" xmlns="http://www.w3.org/2000/svg"
 width="640.000000pt" height="640.000000pt" viewBox="0 0 640.000000 640.000000"
 preserveAspectRatio="xMidYMid meet">
<metadata>
Created by potrace 1.11, written by Peter Selinger 2001-2013
</metadata>
<g transform="translate(0.000000,640.000000) scale(0.100000,-0.100000)"
fill="#000000" stroke="none">
<path d="M4649 4146 c-116 -33 -201 -105 -242 -208 -17 -43 -21 -81 -25 -205
l-4 -153 -209 0 -209 0 0 -150 0 -150 210 0 210 0 0 -370 0 -370 -200 0 -200
0 0 -150 0 -150 605 0 605 0 0 150 0 150 -215 0 -215 0 0 370 0 370 243 2 242
3 3 147 3 148 -243 2 -243 3 -3 137 -3 138 243 2 243 3 3 148 3 147 -278 -1
c-191 -1 -292 -5 -324 -13z"/>
<path d="M1840 3859 c0 -272 1 -271 -237 -277 l-153 -4 0 -149 0 -149 180 0
180 0 0 -327 c0 -181 5 -359 10 -396 17 -117 78 -211 169 -260 87 -48 158 -57
459 -57 l272 0 0 150 0 150 -260 0 -260 0 0 370 0 370 260 0 260 0 0 150 0
150 -260 0 -260 0 0 235 0 235 -180 0 -180 0 0 -191z"/>
<path d="M2937 3213 c-4 -3 -7 -87 -7 -185 l0 -178 420 0 420 0 -2 183 -3 182
-411 3 c-226 1 -413 -1 -417 -5z"/>
</g>
</svg>
