<?xml version="1.0" standalone="no"?>
<!DOCTYPE svg PUBLIC "-//W3C//DTD SVG 20010904//EN"
 "http://www.w3.org/TR/2001/REC-SVG-20010904/DTD/svg10.dtd">
<svg version="1.0" xmlns="http://www.w3.org/2000/svg"
 width="512.000000pt" height="512.000000pt" viewBox="0 0 512.000000 512.000000"
 preserveAspectRatio="xMidYMid meet">
<metadata>
Created by potrace 1.11, written by Peter Selinger 2001-2013
</metadata>
<g transform="translate(0.000000,512.000000) scale(0.100000,-0.100000)"
fill="#000000" stroke="none">
<path d="M1459 4806 c-33 -30 -44 -94 -29 -162 19 -83 26 -254 15 -359 -3 -27
-7 -70 -9 -95 -3 -25 -9 -79 -15 -120 -6 -41 -13 -96 -15 -121 -3 -25 -9 -66
-15 -90 -5 -24 -12 -80 -16 -124 -3 -44 -10 -96 -15 -115 -9 -34 -18 -102 -25
-185 -3 -36 -19 -161 -30 -241 -13 -90 -37 -306 -50 -449 -4 -38 -10 -83 -15
-100 -5 -16 -9 -46 -10 -65 -1 -44 -7 -105 -10 -105 -1 0 -4 -22 -5 -50 -4
-53 -9 -104 -26 -225 -5 -41 -12 -86 -13 -100 -2 -14 -7 -33 -11 -42 -4 -10
-5 -23 -2 -30 2 -7 0 -26 -5 -43 -33 -109 -44 -154 -53 -229 -3 -21 -12 -80
-21 -130 -9 -50 -17 -98 -18 -106 -1 -9 -5 -20 -8 -25 -5 -9 -11 -50 -23 -170
-3 -27 -10 -72 -15 -100 -5 -27 -12 -72 -16 -100 -3 -27 -10 -58 -15 -67 -5
-9 -9 -32 -9 -50 0 -18 -10 -94 -21 -168 -12 -74 -22 -151 -24 -170 -3 -45
-15 -102 -24 -115 -4 -5 -13 -28 -20 -51 -18 -55 -10 -78 44 -137 11 -12 19
-24 18 -27 -1 -3 18 -16 42 -29 58 -31 101 -24 133 22 24 36 29 83 10 89 -7 3
-8 10 -4 17 5 7 10 74 12 149 4 188 7 222 17 222 5 0 7 16 5 35 -2 19 -1 35 2
35 3 0 6 25 7 56 1 30 7 61 13 69 12 14 11 87 -1 123 -5 13 -5 22 1 22 6 0 10
7 10 15 0 8 4 15 9 15 7 0 18 63 27 155 1 17 12 86 23 154 11 68 20 126 19
130 -1 3 4 17 9 31 6 14 13 48 14 75 2 28 7 52 11 55 10 8 38 144 38 185 0 19
5 37 10 40 6 4 8 10 5 15 -3 5 -1 11 4 15 6 3 13 27 16 53 4 26 16 84 26 130
11 46 22 107 24 135 3 29 10 71 16 95 7 23 9 45 6 48 -3 3 -1 18 4 32 9 23 23
122 33 230 2 18 6 35 10 39 3 3 6 22 6 41 0 19 4 51 9 71 14 54 43 289 46 378
2 43 8 105 13 138 11 60 26 264 26 343 0 23 4 42 8 42 5 0 8 15 8 33 0 103 42
367 59 367 3 0 19 -33 34 -73 16 -39 33 -83 39 -97 6 -14 12 -29 12 -35 1 -5
9 -32 20 -60 28 -76 29 -79 30 -90 2 -15 36 -118 45 -135 4 -8 14 -40 22 -70
7 -30 16 -57 19 -60 3 -3 7 -12 9 -20 11 -44 33 -139 38 -163 3 -15 9 -30 14
-33 5 -3 9 -16 9 -30 0 -13 4 -32 9 -42 14 -26 71 -174 75 -197 20 -93 105
-420 124 -475 3 -8 7 -26 9 -39 2 -14 9 -34 15 -45 7 -12 12 -32 12 -46 1 -14
5 -31 9 -38 5 -7 10 -25 12 -40 10 -71 43 -221 52 -237 6 -10 8 -26 6 -35 -3
-10 0 -21 6 -24 6 -4 11 -17 11 -30 0 -12 3 -26 7 -30 4 -4 8 -17 10 -29 5
-58 74 -341 92 -382 19 -43 31 -82 45 -145 21 -98 55 -212 70 -240 7 -14 11
-30 9 -37 -2 -6 5 -21 16 -32 11 -11 18 -27 15 -35 -3 -9 5 -30 18 -48 12 -18
21 -33 20 -33 -4 0 14 -51 28 -80 5 -11 14 -32 20 -47 5 -16 14 -28 20 -28 5
0 10 -9 10 -20 0 -11 5 -20 12 -20 6 0 9 -3 5 -6 -7 -7 19 -61 39 -82 8 -7 14
-20 14 -28 0 -8 5 -14 10 -14 6 0 13 -7 17 -16 3 -9 17 -28 31 -43 13 -14 35
-43 48 -63 14 -21 28 -38 33 -38 4 0 19 -9 32 -21 20 -18 33 -20 82 -16 89 8
119 46 140 175 6 39 15 72 19 72 5 0 8 12 8 28 0 15 4 43 9 62 6 19 12 49 15
65 3 17 14 66 25 109 11 44 18 83 16 87 -3 4 1 9 9 12 8 3 17 28 21 56 4 28
11 53 16 57 5 3 9 15 9 28 0 12 3 26 7 30 4 4 13 28 21 54 26 94 31 109 67
207 20 55 50 143 67 195 16 52 43 127 58 165 16 39 31 87 35 108 4 20 11 40
16 43 5 3 9 16 9 30 0 13 4 24 9 24 5 0 12 15 15 33 4 19 15 52 26 75 11 23
20 54 20 69 0 16 9 36 20 46 11 9 20 26 20 38 0 11 7 27 15 35 8 9 15 26 15
40 0 13 4 24 9 24 5 0 12 17 16 38 4 20 10 42 15 47 7 9 39 108 44 139 1 6 10
26 20 44 9 18 16 41 14 50 -1 9 1 23 6 31 8 12 33 95 72 241 8 30 13 63 11 72
-3 9 1 19 9 22 8 3 14 13 14 22 0 23 66 265 91 332 10 29 16 64 13 76 -3 13 2
45 10 71 16 46 37 167 76 447 11 76 29 163 41 195 26 72 34 128 20 137 -14 9
-14 26 0 26 38 0 51 98 23 165 -27 66 -73 99 -123 89 -32 -7 -101 -69 -101
-90 0 -7 -4 -14 -10 -16 -5 -1 -11 -12 -13 -23 -2 -11 -9 -31 -16 -43 -7 -13
-10 -26 -7 -30 3 -3 -1 -14 -11 -24 -9 -10 -13 -18 -8 -18 4 0 0 -11 -9 -25
-9 -13 -16 -33 -16 -44 0 -11 -4 -22 -9 -25 -4 -3 -12 -20 -16 -38 -9 -40 -8
-35 -28 -81 -14 -32 -29 -78 -43 -132 -1 -5 -7 -23 -13 -40 -25 -69 -70 -214
-75 -236 -9 -46 -14 -67 -24 -103 -6 -20 -8 -36 -6 -36 3 0 -1 -10 -8 -22 -7
-13 -14 -30 -15 -38 -1 -8 -5 -35 -8 -60 -3 -24 -15 -69 -26 -99 -10 -30 -19
-69 -19 -86 0 -17 -5 -36 -10 -41 -6 -6 -12 -26 -14 -45 -1 -19 -8 -44 -14
-56 -7 -12 -12 -33 -12 -47 0 -14 -5 -28 -10 -31 -6 -4 -9 -12 -8 -18 1 -7 -5
-34 -14 -62 -9 -27 -16 -66 -17 -85 0 -20 -7 -51 -15 -70 -8 -19 -17 -51 -20
-70 -6 -40 -42 -154 -57 -186 -6 -12 -10 -30 -9 -40 1 -10 1 -22 0 -26 -5 -15
-7 -23 -14 -63 -10 -52 -35 -135 -46 -156 -5 -9 -14 -45 -20 -80 -7 -35 -20
-91 -30 -124 -9 -33 -27 -105 -40 -160 -32 -142 -41 -178 -51 -197 -5 -10 -9
-29 -9 -44 0 -14 -5 -34 -10 -44 -6 -11 -11 -38 -13 -60 -1 -22 -6 -40 -11
-40 -4 0 -6 -9 -3 -20 3 -11 2 -20 -1 -20 -4 0 -15 -35 -26 -78 -10 -42 -23
-85 -28 -95 -5 -10 -12 -30 -14 -45 -3 -14 -8 -30 -12 -36 -4 -6 -7 -13 -8
-16 -4 -27 -39 -128 -47 -138 -5 -7 -7 -15 -4 -18 9 -9 -20 -103 -47 -147 -41
-71 -47 -73 -94 -26 -23 22 -42 47 -42 55 0 8 -7 14 -15 14 -9 0 -15 9 -15 24
0 13 -8 39 -17 58 -29 58 -33 68 -33 78 0 6 -9 29 -19 53 -34 74 -51 119 -51
136 0 9 -9 34 -20 56 -11 21 -21 48 -23 59 -4 24 -13 47 -33 94 -8 18 -14 41
-14 50 0 10 -5 23 -10 28 -6 6 -13 34 -17 62 -3 29 -9 52 -13 52 -4 0 -10 27
-14 60 -4 33 -11 60 -16 60 -6 0 -10 12 -10 26 0 14 -5 34 -11 45 -6 11 -11
35 -11 52 0 18 -7 57 -15 87 -9 30 -20 79 -26 108 -6 28 -14 52 -19 52 -4 0
-8 15 -8 34 0 18 -4 46 -9 62 -5 16 -15 56 -22 89 -7 33 -16 65 -20 70 -4 6
-11 28 -15 50 -4 22 -11 42 -15 45 -5 3 -16 37 -26 75 -10 39 -21 72 -26 73
-4 2 -5 8 -1 13 6 10 2 25 -39 154 -14 44 -35 125 -48 180 -13 55 -26 102 -30
105 -4 3 -10 31 -14 63 -4 31 -11 57 -15 57 -4 0 -10 12 -13 28 -8 39 -35 121
-57 167 -10 22 -24 66 -31 98 -7 32 -16 60 -21 63 -4 3 -8 16 -8 29 0 13 -4
25 -9 27 -6 2 -11 15 -13 30 -2 15 -7 30 -11 34 -4 4 -7 17 -7 29 0 13 -12 54
-26 91 -14 38 -27 74 -28 79 -13 59 -19 74 -28 69 -6 -4 -8 -3 -5 3 4 6 -2 28
-12 49 -11 22 -24 58 -30 82 -7 23 -16 42 -21 42 -6 0 -10 10 -10 23 0 13 -13
41 -30 63 -16 21 -30 43 -30 47 0 4 -9 27 -20 49 -11 23 -20 47 -20 54 0 6 -7
17 -15 24 -8 7 -15 21 -15 32 0 35 -41 78 -75 78 -26 0 -36 7 -56 38 -31 47
-72 54 -110 18z"/>
</g>
</svg>
