<?xml version="1.0" standalone="no"?>
<!DOCTYPE svg PUBLIC "-//W3C//DTD SVG 20010904//EN"
 "http://www.w3.org/TR/2001/REC-SVG-20010904/DTD/svg10.dtd">
<svg version="1.0" xmlns="http://www.w3.org/2000/svg"
 width="833.000000pt" height="833.000000pt" viewBox="0 0 833.000000 833.000000"
 preserveAspectRatio="xMidYMid meet">
<metadata>
Created by potrace 1.11, written by Peter Selinger 2001-2013
</metadata>
<g transform="translate(0.000000,833.000000) scale(0.100000,-0.100000)"
fill="#000000" stroke="none">
<path d="M1919 8319 c-95 -14 -176 -72 -219 -155 l-25 -49 -2 -2145 c-2 -2314
-5 -2195 48 -2375 104 -353 402 -654 761 -769 43 -14 94 -27 115 -31 21 -3 63
-9 93 -15 70 -11 2817 -12 2885 0 28 5 68 12 90 15 59 10 207 61 278 96 215
107 409 295 519 504 33 64 113 275 103 275 -2 0 1 15 6 33 5 17 12 68 16 112
4 44 7 1025 7 2180 l0 2100 -25 56 c-42 89 -120 151 -208 165 -52 8 -4384 11
-4442 3z m4437 -84 c47 -8 110 -59 136 -107 l22 -43 0 -2125 c0 -2176 0 -2175
-36 -2300 -89 -308 -291 -555 -565 -694 -68 -34 -139 -60 -238 -88 l-80 -22
-1425 -3 c-1529 -2 -1485 -4 -1655 48 -328 99 -601 367 -711 699 -22 67 -19
57 -38 155 -13 70 -15 356 -15 2200 -1 2037 0 2122 18 2160 21 46 65 92 101
108 14 6 57 13 95 16 92 8 4351 4 4391 -4z"/>
<path d="M2930 5745 l0 -1575 713 1 c754 1 810 4 997 50 516 129 892 529 1013
1080 14 63 28 139 32 169 3 30 8 68 11 83 8 40 8 331 0 397 -14 116 -18 138
-37 230 -26 120 -23 108 -38 155 -77 240 -179 418 -328 571 -197 205 -476 346
-768 389 -22 4 -51 9 -65 12 -14 4 -364 8 -777 10 l-753 4 0 -1576z m1500
1393 c74 -13 106 -19 145 -30 22 -5 50 -12 63 -14 44 -8 157 -55 239 -99 268
-142 460 -376 564 -686 30 -90 35 -109 45 -159 2 -14 9 -46 14 -71 31 -155 34
-490 5 -624 -3 -11 -7 -31 -9 -45 -49 -297 -213 -592 -434 -783 -106 -91 -272
-180 -417 -224 -196 -58 -236 -61 -920 -59 l-620 1 -1 1403 -1 1403 646 -4
c355 -2 662 -6 681 -9z"/>
<path d="M3239 7023 c-4 -44 -2 -2547 2 -2555 7 -11 1125 -6 1174 5 17 4 64
14 105 23 486 104 795 487 855 1059 13 117 6 390 -10 455 -2 8 -7 35 -10 59
-10 67 -52 207 -92 301 -118 280 -355 497 -648 594 -182 60 -172 59 -797 63
-318 3 -578 1 -579 -4z m986 -167 c181 -8 260 -24 393 -79 243 -103 419 -295
516 -565 24 -68 28 -83 41 -149 3 -16 8 -35 10 -43 19 -71 26 -355 12 -479
-37 -310 -176 -572 -389 -729 -85 -63 -237 -133 -320 -147 -18 -4 -51 -10 -73
-15 -84 -19 -162 -22 -555 -21 -223 0 -415 0 -427 0 l-23 1 0 1115 0 1115 238
2 c252 3 383 2 577 -6z"/>
<path d="M4773 2248 c-353 -40 -621 -292 -668 -628 -6 -46 -6 -198 0 -230 3
-14 7 -34 9 -45 18 -89 56 -182 100 -248 14 -21 26 -40 26 -43 0 -3 31 -36 69
-73 179 -177 414 -250 696 -217 89 11 227 59 303 105 119 72 107 32 107 351 0
241 -2 279 -15 282 -8 2 -42 4 -75 3 l-60 0 0 -245 0 -245 -32 -23 c-161 -113
-472 -124 -658 -23 -152 82 -268 230 -305 391 -18 76 -17 223 3 297 40 152
150 299 277 370 169 95 389 112 573 43 63 -24 172 -92 186 -118 9 -15 17 -10
63 35 l52 52 -24 27 c-40 43 -150 110 -228 138 -120 43 -269 59 -399 44z"/>
<path d="M1089 2223 c-1 -23 0 -1400 0 -1431 l1 -24 383 4 c354 4 388 6 460
26 329 91 533 346 542 679 7 296 -121 530 -365 666 -47 26 -170 71 -230 83
-19 4 -205 9 -412 11 -359 4 -378 3 -379 -14z m721 -127 c189 -36 349 -140
429 -278 53 -94 74 -171 77 -289 8 -248 -99 -441 -306 -548 -44 -23 -83 -42
-87 -42 -5 0 -24 -4 -43 -9 -76 -20 -114 -22 -367 -24 -176 -1 -263 2 -266 9
-3 9 -1 1137 2 1175 1 13 35 15 264 14 144 -1 278 -5 297 -8z"/>
<path d="M2827 1523 c1 -395 2 -726 2 -735 1 -17 33 -18 521 -18 l520 0 0 68
0 67 -427 -1 c-236 0 -435 2 -443 5 -13 5 -15 45 -15 274 l0 267 380 0 380 0
1 65 c0 39 -4 66 -10 66 -6 1 -177 2 -381 3 l-369 1 -1 258 c0 223 2 257 15
258 8 1 195 3 415 4 220 1 405 3 412 4 7 1 11 24 12 66 l0 65 -507 0 -507 0 2
-717z"/>
<path d="M6255 2178 c-46 -103 -76 -169 -112 -248 -20 -41 -48 -102 -63 -135
-15 -33 -39 -85 -53 -115 -14 -30 -45 -100 -70 -155 -25 -55 -59 -129 -75
-165 -119 -257 -262 -574 -262 -581 0 -5 35 -9 79 -9 l78 0 33 73 c45 98 82
180 115 254 l27 62 52 3 c28 2 212 1 410 -2 l358 -5 87 -192 86 -192 83 -1
c45 0 82 2 82 4 0 2 -26 61 -59 132 -32 71 -71 156 -86 189 -69 153 -241 528
-274 600 -21 44 -50 107 -65 140 -15 33 -62 137 -104 230 l-78 170 -80 3 -81
3 -28 -63z m304 -546 c73 -160 136 -303 141 -317 l10 -25 -350 0 -349 0 30 68
c17 37 67 148 111 247 44 99 92 205 105 235 27 58 50 109 84 187 l20 47 34
-74 c18 -41 92 -207 164 -368z"/>
<path d="M1070 291 c0 -214 3 -280 13 -283 6 -2 1391 -3 3077 -2 l3065 1 3
281 2 282 -3080 0 -3080 0 0 -279z"/>
</g>
</svg>
